<svg xmlns="http://www.w3.org/2000/svg" viewBox="0 0 800 600" role="img" aria-label="Shoei RF-1400 full-face helmet, gloss black with rear spoiler">
  <defs>
    <linearGradient id="shell2" x1="0" y1="0" x2="0" y2="1">
      <stop offset="0" stop-color="#383F48"/>
      <stop offset="0.45" stop-color="#23282F"/>
      <stop offset="1" stop-color="#14181D"/>
    </linearGradient>
    <linearGradient id="visor2" x1="0" y1="0" x2="1" y2="1">
      <stop offset="0" stop-color="#E8E6E0" stop-opacity="0.35"/>
      <stop offset="0.45" stop-color="#1C2228" stop-opacity="0.92"/>
      <stop offset="1" stop-color="#101316"/>
    </linearGradient>
  </defs>
  <!-- narrower aero shell with rear spoiler -->
  <path d="M250 190 C295 115 405 88 490 105 C585 125 645 200 652 285 C658 350 645 415 600 450 C620 430 655 428 672 438 L676 452 C640 452 610 462 585 478 L575 478 C572 452 560 436 540 434 L305 434 C265 434 238 405 228 360 C217 305 222 235 250 190 Z"
        fill="url(#shell2)" stroke="#3A4148" stroke-width="6"/>
  <!-- visor with thicker window beading -->
  <path d="M258 215 C312 172 398 158 466 172 C516 184 548 212 556 250 C562 280 548 304 516 310 L342 310 C302 310 272 288 258 252 Z"
        fill="url(#visor2)" stroke="#101316" stroke-width="9"/>
  <circle cx="556" cy="294" r="24" fill="#23282F" stroke="#3A4148" stroke-width="5"/>
  <circle cx="556" cy="294" r="8" fill="#9BA3A8"/>
  <!-- chin bar -->
  <path d="M228 360 C234 408 266 434 306 434 L412 434 C402 396 372 366 332 354 L242 336 C232 342 226 350 228 360 Z"
        fill="#14181D" stroke="#3A4148" stroke-width="5"/>
  <rect x="270" y="372" width="54" height="16" rx="6" fill="#101316" stroke="#3A4148" stroke-width="3"/>
  <!-- crown vents -->
  <path d="M340 112 L382 100 L390 118 L348 130 Z" fill="#101316" stroke="#3A4148" stroke-width="3"/>
  <path d="M412 94 L452 92 L456 112 L416 114 Z" fill="#101316" stroke="#3A4148" stroke-width="3"/>
  <!-- gloss highlight -->
  <path d="M280 178 C340 120 450 100 528 132" fill="none" stroke="#E8E6E0" stroke-opacity="0.28" stroke-width="8" stroke-linecap="round"/>
  <!-- base gasket -->
  <path d="M306 436 L540 436 C558 436 570 450 574 476 L560 482 C520 458 344 458 306 482 L292 474 C292 454 298 440 306 436 Z" fill="#101316"/>
</svg>
